<?xml version="1.0" encoding="UTF-8"?>
<!DOCTYPE svg PUBLIC "-//W3C//DTD SVG 1.1//EN" "http://www.w3.org/Graphics/SVG/1.1/DTD/svg11.dtd">
<!-- Creator: CorelDRAW X6 -->
<svg xmlns="http://www.w3.org/2000/svg" xml:space="preserve" width="4.98061in" height="1.35559in" version="1.1" style="shape-rendering:geometricPrecision; text-rendering:geometricPrecision; image-rendering:optimizeQuality; fill-rule:evenodd; clip-rule:evenodd"
viewBox="0 0 2658 723"
 xmlns:xlink="http://www.w3.org/1999/xlink">
 <defs>
  <style type="text/css">
   <![CDATA[
    .fil0 {fill:black;fill-rule:nonzero}
   ]]>
  </style>
 </defs>
 <g id="Layer_x0020_1">
  <metadata id="CorelCorpID_0Corel-Layer"/>
  <g id="Trident-logo-KO-04-04.eps">
   <polygon class="fil0" points="0,0 383,0 383,61 214,61 214,367 153,367 153,61 0,61 "/>
   <path class="fil0" d="M628 184c81,0 122,-21 122,-62 0,-40 -41,-61 -122,-61l-184 0 0 -61 184 0c122,0 183,41 183,122 0,41 -15,72 -45,92 30,21 45,51 45,92l0 61 -61 0 0 -61c0,-41 -41,-61 -122,-61l-184 0 0 -61 184 0z"/>
   <polygon class="fil0" points="873,367 934,367 934,0 873,0 "/>
   <path class="fil0" d="M1179 61l-184 0 0 -61 184 0c122,0 184,61 184,184 0,122 -62,183 -184,183l-184 0 0 -61 184 0c82,0 122,-41 122,-122 0,-82 -40,-123 -122,-123z"/>
   <path class="fil0" d="M1424 122c0,-81 61,-122 184,-122l183 0 0 61 -183 0c-82,0 -123,21 -123,61l0 23c30,-15 71,-23 123,-23l122 0 0 62 -122 0c-80,0 -121,19 -123,58l0 3c0,41 41,61 123,61l183 0 0 61 -183 0c-123,0 -184,-40 -184,-122l0 -123z"/>
   <path class="fil0" d="M1914 184l0 183 -61 0 0 -183c0,-123 61,-184 183,-184 123,0 184,61 184,184l0 183 -61 0 0 -183c0,-82 -41,-123 -123,-123 -81,0 -122,41 -122,123z"/>
   <polygon class="fil0" points="2275,0 2658,0 2658,61 2489,61 2489,367 2428,367 2428,61 2275,61 "/>
   <path class="fil0" d="M578 680c0,24 -19,43 -43,43 -24,0 -44,-19 -44,-43l0 -146 27 0 0 143c0,13 7,19 17,19 9,0 16,-6 16,-19l0 -143 27 0 0 146z"/>
   <polygon class="fil0" points="605,534 631,534 672,647 672,647 672,534 699,534 699,722 674,722 633,609 632,609 632,722 605,722 "/>
   <path class="fil0" d="M755 696l13 0c15,0 21,-7 21,-23l0 -91c0,-14 -5,-23 -21,-23l-13 0 0 137zm-26 -162l39 0c31,0 48,18 48,48l0 88c0,35 -18,52 -50,52l-37 0 0 -188z"/>
   <polygon class="fil0" points="841,534 921,534 921,559 868,559 868,614 914,614 914,640 868,640 868,695 921,695 921,722 841,722 "/>
   <path class="fil0" d="M968 618l15 0c19,0 22,-11 22,-29 0,-19 -3,-30 -23,-30l-14 0 0 59zm-27 -84l43 0c32,0 48,19 48,55 0,22 -6,38 -23,47l29 86 -29 0 -25 -80 -16 0 0 80 -27 0 0 -188z"/>
   <polygon class="fil0" points="1168,722 1142,722 1122,600 1121,600 1101,722 1076,722 1048,534 1076,534 1090,653 1090,653 1111,534 1132,534 1154,656 1154,656 1167,534 1196,534 "/>
   <path class="fil0" d="M1249 588l-1 0 -13 68 27 0 -13 -68zm-12 -54l23 0 42 188 -27 0 -8 -41 -37 0 -8 41 -27 0 42 -188z"/>
   <polygon class="fil0" points="1321,559 1289,559 1289,534 1379,534 1379,559 1347,559 1347,722 1321,722 "/>
   <polygon class="fil0" points="1393,534 1473,534 1473,559 1420,559 1420,614 1466,614 1466,640 1420,640 1420,695 1473,695 1473,722 1393,722 "/>
   <path class="fil0" d="M1520 618l16 0c18,0 21,-11 21,-29 0,-19 -3,-30 -23,-30l-14 0 0 59zm-27 -84l44 0c32,0 47,19 47,55 0,22 -6,38 -23,47l29 86 -29 0 -25 -80 -16 0 0 80 -27 0 0 -188z"/>
   <path class="fil0" d="M1687 696l12 0c15,0 21,-7 21,-23l0 -91c0,-14 -5,-23 -21,-23l-12 0 0 137zm-27 -162l40 0c30,0 47,18 47,48l0 88c0,35 -18,52 -49,52l-38 0 0 -188z"/>
   <path class="fil0" d="M1802 618l15 0c19,0 22,-11 22,-29 0,-19 -3,-30 -23,-30l-14 0 0 59zm-27 -84l43 0c32,0 48,19 48,55 0,22 -6,38 -23,47l29 86 -29 0 -25 -80 -16 0 0 80 -27 0 0 -188z"/>
   <path class="fil0" d="M1913 677c0,13 8,19 18,19 10,0 18,-6 18,-19l0 -99c0,-13 -8,-19 -18,-19 -10,0 -18,6 -18,19l0 99zm-27 -99c0,-30 23,-46 45,-46 22,0 45,16 45,46l0 99c0,31 -23,46 -45,46 -22,0 -45,-15 -45,-46l0 -99z"/>
   <polygon class="fil0" points="2001,534 2027,534 2068,647 2068,647 2068,534 2095,534 2095,722 2070,722 2029,609 2028,609 2028,722 2001,722 "/>
   <polygon class="fil0" points="2122,534 2202,534 2202,559 2149,559 2149,614 2196,614 2196,640 2149,640 2149,695 2202,695 2202,722 2122,722 "/>
   <path class="fil0" d="M271 655c3,0 38,0 57,0 14,0 29,0 43,0 10,0 21,0 32,-1 6,0 12,-1 18,-2 4,0 8,-1 11,-2 5,-2 7,-5 8,-10 1,-6 1,-13 1,-19 0,-4 -1,-7 -2,-11 -2,-4 -5,-6 -9,-7 -3,-1 -6,-1 -9,-1 -13,-2 -25,-2 -38,-2 -14,0 -28,0 -42,0 -11,0 -33,1 -43,1 -13,0 -73,3 -83,4 -4,0 -8,0 -12,1 -8,1 -16,3 -24,5 -7,2 -13,4 -19,8 -4,3 -6,6 -6,11 0,4 2,7 5,9 7,5 15,8 24,10 6,1 11,2 17,3 3,1 6,1 9,1 8,1 16,1 24,1 7,1 34,1 38,1z"/>
   <path class="fil0" d="M2411 655c-4,0 -38,0 -57,0 -15,0 -29,0 -43,0 -11,0 -21,0 -32,-1 -6,0 -12,-1 -18,-2 -4,0 -8,-1 -11,-2 -5,-2 -8,-5 -8,-10 -1,-6 -1,-13 -1,-19 0,-4 1,-7 2,-11 2,-4 5,-6 9,-7 3,-1 6,-1 9,-1 12,-2 25,-2 38,-2 14,0 28,0 42,0 11,0 33,1 43,1 13,0 73,3 83,4 4,0 8,0 12,1 8,1 16,3 24,5 7,2 13,4 19,8 4,3 6,6 6,11 0,4 -2,7 -5,9 -7,5 -15,8 -24,10 -6,1 -12,2 -17,3 -3,1 -6,1 -9,1 -8,1 -16,1 -24,1 -7,1 -34,1 -38,1z"/>
  </g>
 </g>
</svg>
