<svg xmlns="http://www.w3.org/2000/svg" width="40" height="40" viewBox="0 0 40 40"><title>Slice 1</title><g fill="none" fill-rule="evenodd"><path d="M19.955 40C31.002 40 40 31.002 40 19.955 40 8.91 31.002 0 19.955 0 8.998 0 0 8.909 0 19.955 0 31.002 8.998 40 19.955 40z" fill="#000"/><g transform="translate(-93.79 -335.099)"><rect ry="3.377" y="346.252" x="97.456" height="16.112" width="32.223" fill="#fff"/><rect width="30.294" height="15.147" x="98.421" y="346.735" ry="3.174" fill="#000"/><rect ry="2.79" y="347.651" x="99.482" height="13.314" width="26.628" fill="#fff"/><ellipse ry=".772" rx=".82" cy="354.067" cx="127.509" fill="#fff"/><circle cx="121.59" cy="357.464" r="2.49" fill="#000"/><ellipse cx="122.943" cy="358.265" rx=".522" ry=".491" fill="#fff"/><rect width=".171" height="4.544" x="121.481" y="355.152" ry=".059" fill="#fff"/><rect ry=".059" y="119.295" x="-357.509" height="4.544" width=".171" transform="rotate(-90)" fill="#fff"/><rect width="1.281" height="5.938" x="100.853" y="353.63" ry=".262" fill="#000"/><rect transform="rotate(-90)" width=".171" height="1.17" x="-356.696" y="100.904" ry=".015" fill="#fff"/><ellipse ry=".491" rx=".522" cy="357.779" cx="101.503" fill="#fff"/><ellipse cx="127.509" cy="354.067" rx=".699" ry=".65" fill="#000"/></g></g></svg>