<?xml version="1.0" encoding="UTF-8" standalone="no"?>
<!-- Created with Inkscape (http://www.inkscape.org/) -->

<svg
   xmlns:dc="http://purl.org/dc/elements/1.1/"
   xmlns:cc="http://creativecommons.org/ns#"
   xmlns:rdf="http://www.w3.org/1999/02/22-rdf-syntax-ns#"
   xmlns:svg="http://www.w3.org/2000/svg"
   xmlns="http://www.w3.org/2000/svg"
   xmlns:sodipodi="http://sodipodi.sourceforge.net/DTD/sodipodi-0.dtd"
   xmlns:inkscape="http://www.inkscape.org/namespaces/inkscape"
   width="6.4800119mm"
   height="12.576021mm"
   viewBox="0 0 22.960672 44.560705"
   id="svg5858"
   version="1.1"
   inkscape:version="0.91 r13725"
   sodipodi:docname="battery.svg">
  <defs
     id="defs5860" />
  <sodipodi:namedview
     id="base"
     pagecolor="#ffffff"
     bordercolor="#666666"
     borderopacity="1.0"
     inkscape:pageopacity="0.0"
     inkscape:pageshadow="2"
     inkscape:zoom="5.6"
     inkscape:cx="19.634822"
     inkscape:cy="1.9512169"
     inkscape:document-units="px"
     inkscape:current-layer="g5841"
     showgrid="false"
     inkscape:window-width="1535"
     inkscape:window-height="876"
     inkscape:window-x="65"
     inkscape:window-y="24"
     inkscape:window-maximized="1"
     fit-margin-top="0"
     fit-margin-left="0"
     fit-margin-right="0"
     fit-margin-bottom="0" />
  <metadata
     id="metadata5863">
    <rdf:RDF>
      <cc:Work
         rdf:about="">
        <dc:format>image/svg+xml</dc:format>
        <dc:type
           rdf:resource="http://purl.org/dc/dcmitype/StillImage" />
        <dc:title></dc:title>
      </cc:Work>
    </rdf:RDF>
  </metadata>
  <g
     inkscape:label="Layer 1"
     inkscape:groupmode="layer"
     id="layer1"
     transform="translate(-85.662565,-464.36757)">
    <g
       transform="translate(223.61611,-254.33391)"
       id="g5841">
      <path
         style="color:#000000;font-style:normal;font-variant:normal;font-weight:normal;font-stretch:normal;font-size:medium;line-height:normal;font-family:sans-serif;text-indent:0;text-align:start;text-decoration:none;text-decoration-line:none;text-decoration-style:solid;text-decoration-color:#000000;letter-spacing:normal;word-spacing:normal;text-transform:none;direction:ltr;block-progression:tb;writing-mode:lr-tb;baseline-shift:baseline;text-anchor:start;white-space:normal;clip-rule:nonzero;display:inline;overflow:visible;visibility:visible;opacity:1;isolation:auto;mix-blend-mode:normal;color-interpolation:sRGB;color-interpolation-filters:linearRGB;solid-color:#000000;solid-opacity:1;fill:#000000;fill-opacity:1;fill-rule:evenodd;stroke:none;stroke-width:1.67485106;stroke-linecap:round;stroke-linejoin:miter;stroke-miterlimit:4;stroke-dasharray:none;stroke-dashoffset:0;stroke-opacity:1;color-rendering:auto;image-rendering:auto;shape-rendering:auto;text-rendering:auto;enable-background:accumulate"
         d="m -133.15625,721.73047 c -2.64324,0 -4.79688,2.15365 -4.79687,4.79687 l 0,31.9375 c 0,2.64323 2.15363,4.79688 4.79687,4.79688 l 13.36523,0 c 2.64324,0 4.79883,-2.15365 4.79883,-4.79688 l 0,-31.9375 c 0,-2.64322 -2.15559,-4.79687 -4.79883,-4.79687 l -13.36523,0 z m 0,1.67383 13.36523,0 c 1.74433,0 3.12305,1.37871 3.12305,3.12304 l 0,31.9375 c 0,1.74434 -1.37872,3.12305 -3.12305,3.12305 l -13.36523,0 c -1.74434,0 -3.12305,-1.37871 -3.12305,-3.12305 l 0,-31.9375 c 0,-1.74433 1.37871,-3.12304 3.12305,-3.12304 z"
         id="border"
         inkscape:connector-curvature="0"
         inkscape:label="#rect5826" />
      <path
         inkscape:connector-curvature="0"
         id="rect5828"
         d="m -132.6875,724.99609 c -1.05882,0 -1.91016,0.85329 -1.91016,1.91211 l 0,13.06641 15.89258,-9.51367 0,-3.55274 c 0,-1.05882 -0.85329,-1.91211 -1.91211,-1.91211 l -12.07031,0 z m 13.98242,6.97461 -15.89258,9.51368 0,10.23242 15.89258,-9.51368 0,-10.23242 z m 0,11.74219 -15.89258,9.51367 0,4.67969 c 0,1.05882 0.85134,1.91211 1.91016,1.91211 l 12.07031,0 c 1.05882,0 1.91211,-0.85329 1.91211,-1.91211 l 0,-14.19336 z"
         style="fill:#000000;fill-opacity:1;fill-rule:evenodd;stroke:none;stroke-width:1.66799998;stroke-linecap:round;stroke-miterlimit:4;stroke-dasharray:none;stroke-opacity:1" />
      <path
         style="fill:#000000;fill-opacity:1;fill-rule:evenodd;stroke:none;stroke-width:1.66799998;stroke-linecap:round;stroke-miterlimit:4;stroke-dasharray:none;stroke-opacity:1"
         d="m -131.60715,718.70148 10.26786,0 0,1.69643 -10.26786,0 z"
         id="top" />
    </g>
  </g>
</svg>
