<?xml version="1.0" encoding="UTF-8" standalone="no"?>
<svg
   xmlns:dc="http://purl.org/dc/elements/1.1/"
   xmlns:cc="http://creativecommons.org/ns#"
   xmlns:rdf="http://www.w3.org/1999/02/22-rdf-syntax-ns#"
   xmlns:svg="http://www.w3.org/2000/svg"
   xmlns="http://www.w3.org/2000/svg"
   xmlns:sodipodi="http://sodipodi.sourceforge.net/DTD/sodipodi-0.dtd"
   xmlns:inkscape="http://www.inkscape.org/namespaces/inkscape"
   width="40"
   height="40"
   viewBox="0 0 40 40"
   version="1.1"
   id="svg2"
   inkscape:version="0.91 r13725"
   sodipodi:docname="carry.svg">
  <metadata
     id="metadata72">
    <rdf:RDF>
      <cc:Work
         rdf:about="">
        <dc:format>image/svg+xml</dc:format>
        <dc:type
           rdf:resource="http://purl.org/dc/dcmitype/StillImage" />
        <dc:title>Slice 1</dc:title>
      </cc:Work>
    </rdf:RDF>
  </metadata>
  <sodipodi:namedview
     pagecolor="#ffffff"
     bordercolor="#666666"
     borderopacity="1"
     objecttolerance="10"
     gridtolerance="10"
     guidetolerance="10"
     inkscape:pageopacity="0"
     inkscape:pageshadow="2"
     inkscape:window-width="1043"
     inkscape:window-height="696"
     id="namedview70"
     showgrid="false"
     fit-margin-top="0"
     fit-margin-left="0"
     fit-margin-right="0"
     fit-margin-bottom="0"
     inkscape:zoom="10.365217"
     inkscape:cx="12.475739"
     inkscape:cy="15.2293"
     inkscape:window-x="75"
     inkscape:window-y="34"
     inkscape:window-maximized="0"
     inkscape:current-layer="Page-1" />
  <!-- Generator: Sketch 40.1 (33804) - http://www.bohemiancoding.com/sketch -->
  <title
     id="title4">Slice 1</title>
  <desc
     id="desc6">Created with Sketch.</desc>
  <defs
     id="defs8" />
  <g
     id="Page-1"
     transform="translate(-99,-294)"
     style="fill:none;fill-rule:evenodd;stroke:none;stroke-width:1">
    <ellipse
       style="opacity:1;fill:#ffffff;fill-opacity:1;fill-rule:evenodd;stroke:none;stroke-width:12.66800022;stroke-linecap:round;stroke-miterlimit:4;stroke-dasharray:none;stroke-opacity:1"
       id="path4136"
       cx="118.68121"
       cy="313.69168"
       rx="19.005873"
       ry="18.57173" />
    <path
       d="M 118.95546,334 C 130.00223,334 139,325.00223 139,313.95546 139,302.90869 130.00223,294 118.95546,294 107.99777,294 99,302.90869 99,313.95546 99,325.00223 107.99777,334 118.95546,334 l 0,0 z m 5.70156,-19.77728 c -0.0891,0 -0.17818,0 -0.17818,0.0891 l 0,0.26727 c 0,0 0.0891,0 0.0891,0.0891 0.17817,0 0.26726,-0.0891 0.26726,-0.0891 0.0891,-0.17818 0.0891,-0.26727 0,-0.35635 l -0.17817,0 0,0 0,0 z m -2.22718,-1.24722 c 0,0 0,-0.0891 -0.0891,-0.17817 l -1.42539,0 0,0.71269 c 0.17817,0.0891 1.3363,0.0891 1.42539,0 0.17817,-0.0891 0.0891,-0.35634 0.0891,-0.53452 l 0,0 z m 2.049,-0.35635 c -0.0891,0.0891 -0.26726,0.0891 -0.26726,0.17818 -0.17817,0.26726 0,0.80178 0.35635,0.71269 0.53452,-0.0891 0.53452,-0.89087 -0.0891,-0.89087 l 0,0 z m -10.77951,0.62361 c -0.17817,-0.0891 -1.06904,0 -1.3363,0 l 0,0.53452 c 0.44543,0 0.97995,0.0891 1.3363,0 0,-0.0891 0.0891,-0.44543 0,-0.53452 l 0,0 z m -4.98886,1.24722 1.95991,0 0,-1.60357 -1.95991,0 0,1.60357 0,0 z m 20.3118,-0.44544 c -0.17817,0.26726 -0.35635,0.53453 -0.53452,0.89087 l -0.35635,0 c -0.53452,-0.89087 -0.97995,-1.69265 -1.42539,-2.49443 l 0.62361,0 c 0.35635,0.53452 0.7127,1.15813 0.97996,1.78174 l 0,0 c 0.35634,-0.62361 0.71269,-1.24722 0.97995,-1.78174 l 0.53452,0 c -0.17817,0.53452 -0.53452,1.06904 -0.80178,1.60356 l 0,0 0,0 z m -2.40534,-0.26726 0,0.80179 c -0.17818,0.53452 -1.42539,0.35634 -2.049,0.35634 l -0.7127,0 c -0.17817,-0.0891 -0.26726,-0.17817 -0.35634,-0.35634 0,-0.26727 0,-1.78174 0.0891,-1.95992 0.26726,-0.26726 1.15813,-0.17817 1.69265,-0.17817 l 0,0 c -0.0891,0.53452 0.80178,0.7127 0.80178,0 0.7127,0 0.53453,0.7127 0.53453,1.3363 l 0,0 0,0 z m -3.3853,1.15813 -0.80179,0 c -0.35634,-0.35634 -0.6236,-0.62361 -0.97995,-0.97995 l -0.53452,0 0,0.97995 -0.62361,0 0,-2.49443 1.69265,0 c 0.26726,0 0.62361,-0.0891 0.80178,0.0891 0.26726,0.0891 0.35635,1.15813 0.0891,1.42539 -0.17818,0.0891 -0.53452,0 -0.7127,0.0891 l 0,0 c 0.35635,0.26726 0.7127,0.53453 1.06905,0.89087 l 0,0 0,0 z m -3.56348,0 -0.35635,0 c -0.0891,-0.0891 -0.26726,-0.17817 -0.35634,-0.26726 -0.44544,-0.35635 -0.89087,-0.71269 -1.33631,-1.15813 0,0.53452 0,0.97996 -0.0891,1.42539 l -0.44544,0 0,-2.049 0.35635,0 c 0.0891,0.0891 0.26726,0.17818 0.35635,0.26727 0.44543,0.35634 0.89087,0.80178 1.42539,1.06904 0,-0.26726 -0.0891,-1.15813 0,-1.33631 l 0.44543,0 0,2.049 0,0 0,0 z m -2.85078,0 -2.22717,0 0,-2.049 2.13809,0 0,0.35635 -1.69265,0 0,0.44544 0.97995,0 0,0.35634 -0.97995,0 0,0.44544 1.78173,0 0,0.44543 0,0 0,0 z m -2.6726,-0.89087 c -0.26726,0.17818 -1.33631,0.0891 -1.78174,0.0891 l 0,0.80178 -0.44543,0 0,-2.049 2.04899,0 c 0.0891,0 0.17818,0.0891 0.26726,0.17818 l 0,0.53452 c 0,0.17817 0,0.35635 -0.0891,0.44543 l 0,0 0,0 z m -3.02896,0.7127 c -0.17817,0.17817 -0.71269,0.17817 -1.15813,0.17817 -0.44543,0 -1.51447,0.0891 -1.69265,-0.26726 -0.17817,-0.17817 -0.0891,-1.15813 -0.0891,-1.51447 0,-0.17818 0,-0.44544 0.0891,-0.53453 0.0891,-0.0891 0.17818,-0.17817 0.35635,-0.17817 0.53452,0 2.31626,-0.17817 2.49443,0.17817 0.17818,0.17818 0.0891,0.89087 0.0891,1.24722 0,0.26726 0.0891,0.7127 -0.0891,0.89087 l 0,0 0,0 z m 3.56348,-14.78842 4.27617,0.0891 4.27617,0 0,3.11804 -8.55234,0 0,-3.20713 0,0 z m 0.44543,-1.3363 c -1.15813,0 -1.87082,0.26726 -1.87082,1.42539 l 0,3.11804 -6.94878,0 c -0.97995,0 -1.87082,0.80178 -1.87082,1.78173 l 0,17.28286 c 0,0.97995 0.89087,1.78173 1.87082,1.78173 l 25.38976,0 c 0.97995,0 1.87082,-0.80178 1.87082,-1.78173 l 0,-17.28286 c 0,-0.97995 -0.89087,-1.78173 -1.87082,-1.78173 l -7.03786,0 0,-3.11804 c 0,-0.89087 -0.53453,-1.24722 -1.24722,-1.42539 l -4.45434,0 -3.83074,0 0,0 z m 10.24499,14.78841 c -0.0891,0 -0.26726,0.0891 -0.26726,0.0891 -0.17817,0.26726 0,0.7127 0.35635,0.62361 0.35635,-0.0891 0.35635,-0.7127 -0.0891,-0.7127 l 0,0 z m -6.14699,-12.63942 0,0 0,-0.1 0,0 0,0.1 0,0 z"
       id="path36"
       inkscape:connector-curvature="0"
       style="fill:#000000;fill-opacity:1" />
  </g>
</svg>
