<?xml version="1.0" encoding="UTF-8" standalone="no"?>
<svg
   xmlns:dc="http://purl.org/dc/elements/1.1/"
   xmlns:cc="http://creativecommons.org/ns#"
   xmlns:rdf="http://www.w3.org/1999/02/22-rdf-syntax-ns#"
   xmlns:svg="http://www.w3.org/2000/svg"
   xmlns="http://www.w3.org/2000/svg"
   xmlns:sodipodi="http://sodipodi.sourceforge.net/DTD/sodipodi-0.dtd"
   xmlns:inkscape="http://www.inkscape.org/namespaces/inkscape"
   width="40"
   height="40"
   viewBox="0 0 40 40"
   version="1.1"
   id="svg2"
   inkscape:version="0.91 r13725"
   sodipodi:docname="connectivity.svg">
  <metadata
     id="metadata72">
    <rdf:RDF>
      <cc:Work
         rdf:about="">
        <dc:format>image/svg+xml</dc:format>
        <dc:type
           rdf:resource="http://purl.org/dc/dcmitype/StillImage" />
        <dc:title>Slice 1</dc:title>
      </cc:Work>
    </rdf:RDF>
  </metadata>
  <sodipodi:namedview
     pagecolor="#624949"
     bordercolor="#666666"
     borderopacity="1"
     objecttolerance="10"
     gridtolerance="10"
     guidetolerance="10"
     inkscape:pageopacity="0"
     inkscape:pageshadow="2"
     inkscape:window-width="1254"
     inkscape:window-height="797"
     id="namedview70"
     showgrid="false"
     fit-margin-top="0"
     fit-margin-left="0"
     fit-margin-right="0"
     fit-margin-bottom="0"
     inkscape:zoom="8"
     inkscape:cx="22.646026"
     inkscape:cy="28.207193"
     inkscape:window-x="75"
     inkscape:window-y="34"
     inkscape:window-maximized="0"
     inkscape:current-layer="Page-1" />
  <!-- Generator: Sketch 40.1 (33804) - http://www.bohemiancoding.com/sketch -->
  <title
     id="title4">Slice 1</title>
  <desc
     id="desc6">Created with Sketch.</desc>
  <defs
     id="defs8" />
  <g
     id="Page-1"
     style="fill:none;fill-rule:evenodd;stroke:none;stroke-width:1"
     transform="translate(-99,-133)">
    <ellipse
       style="opacity:1;fill:#ffffff;fill-opacity:1;fill-rule:evenodd;stroke:none;stroke-width:12.66800022;stroke-linecap:round;stroke-miterlimit:4;stroke-dasharray:none;stroke-opacity:1"
       id="path4136"
       cx="118.98337"
       cy="152.67068"
       rx="18.828497"
       ry="18.964935" />
    <path
       d="M 118.95546,173 C 130.00223,173 139,164.00223 139,152.95546 139,141.90869 130.00223,133 118.95546,133 107.90869,133 99,141.90869 99,152.95546 99,164.00223 107.90869,173 118.95546,173 Z"
       id="Shape"
       inkscape:connector-curvature="0"
       style="fill:#000000;fill-opacity:1"
       sodipodi:nodetypes="csssc" />
    <g
       id="g4185"
       transform="matrix(-0.5913788,0.8063939,-0.8063939,-0.5913788,306.96143,148.42099)">
      <g
         id="g4168">
        <g
           id="g4146"
           transform="translate(9.93708,-4.1484897)"
           style="fill:#ffffff">
          <g
             id="g4143"
             style="fill:#ffffff">
            <rect
               style="opacity:1;fill:#ffffff;fill-opacity:1;fill-rule:evenodd;stroke:none;stroke-width:12.66800022;stroke-linecap:round;stroke-miterlimit:4;stroke-dasharray:none;stroke-opacity:1"
               id="rect4139"
               width="9.8406038"
               height="19.102348"
               x="107.77936"
               y="140.9698"
               ry="3.681366" />
          </g>
          <ellipse
             ry="1.2541945"
             rx="2.8460569"
             cy="142.80286"
             cx="112.69966"
             id="path4141"
             style="opacity:1;fill:#000000;fill-opacity:1;fill-rule:evenodd;stroke:none;stroke-width:12.66800022;stroke-linecap:round;stroke-miterlimit:4;stroke-dasharray:none;stroke-opacity:1" />
        </g>
        <g
           id="g4164"
           transform="matrix(0.61034218,0,0,1,66.553224,-2.1655145)">
          <path
             sodipodi:nodetypes="ssscsss"
             inkscape:connector-curvature="0"
             id="rect4153"
             d="m 91.88926,153.24685 c 0.98879,0 2.00016,0.81976 1.78481,1.78482 l -1.30243,5.83682 c -0.16923,0.75841 -0.48238,0.77182 -0.48238,0.77182 0,0 -0.27351,-0.008 -0.45639,-0.80664 l -1.32843,-5.802 c -0.22068,-0.96385 0.79603,-1.78482 1.78482,-1.78482 z"
             style="opacity:1;fill:#000000;fill-opacity:1;fill-rule:evenodd;stroke:none;stroke-width:12.66800022;stroke-linecap:round;stroke-miterlimit:4;stroke-dasharray:none;stroke-opacity:1" />
          <path
             inkscape:connector-curvature="0"
             id="path4156"
             d="m 90.786105,158.09375 0.638672,2.78711 c 0.18288,0.79864 0.455078,0.80664 0.455078,0.80664 0,0 0.313192,-0.0131 0.482422,-0.77148 l 0.628906,-2.82227 -2.205078,0 z"
             style="opacity:1;fill:#ffffff;fill-opacity:1;fill-rule:evenodd;stroke:none;stroke-width:12.66800022;stroke-linecap:round;stroke-miterlimit:4;stroke-dasharray:none;stroke-opacity:1" />
        </g>
      </g>
      <path
         sodipodi:nodetypes="csc"
         inkscape:connector-curvature="0"
         id="path4183"
         d="m 122.55734,157.55374 c 0,0 1.01348,2.84891 -3.42482,4.53756 -4.49212,1.70912 -6.17422,2.47488 -1.3579,6.27211"
         style="fill:none;fill-rule:evenodd;stroke:#ffffff;stroke-width:0.69999999;stroke-linecap:round;stroke-linejoin:miter;stroke-miterlimit:4;stroke-dasharray:none;stroke-opacity:1" />
    </g>
    <g
       id="g3848"
       transform="matrix(0.02893807,0.00983329,-0.00983329,0.02893807,112.66087,137.01819)"
       style="display:inline;fill:#ffffff;fill-opacity:1">
      <circle
         r="70"
         cy="396.64789"
         cx="344.28571"
         transform="matrix(0.69695424,0,0,0.69695424,107.01816,136.7659)"
         id="path3812"
         style="fill:#ffffff;fill-opacity:1;stroke:none" />
      <path
         inkscape:connector-curvature="0"
         id="path3814"
         d="m 357.125,75.21875 c -88.70625,0 -167.24803,33.72297 -215.5,85.5625 l 40,61.65625 c 35.1157,-46.92077 100.54558,-78.46875 175.5,-78.46875 69.39712,0 130.63979,27.06257 167.21875,68.3125 L 565.8125,153.75 C 517.15423,105.90176 441.76173,75.21875 357.125,75.21875 Z"
         style="fill:#ffffff;fill-opacity:1;stroke:none" />
      <path
         inkscape:connector-curvature="0"
         id="path3822"
         d="m 350,229.5 c -50.45667,0 -96.51719,18.78113 -131.5625,49.6875 l 33.78125,52.09375 C 278.62505,309.04597 312.73394,295.625 350,295.625 c 34.98396,0 67.17684,11.81479 92.84375,31.65625 l 35.84375,-50.625 C 444.0107,247.23634 399.08938,229.5 350,229.5 Z"
         style="fill:#ffffff;fill-opacity:1;stroke:none" />
      <path
         inkscape:connector-curvature="0"
         style="fill:#ffffff;fill-opacity:1;stroke:none"
         d="m 372.15625,138.25 c -116.58406,0 -221.30767,45.12743 -293.4375,116.8125 l 37.90625,58.40625 c 53.30072,-61.70409 147.01391,-102.6875 253.78125,-102.6875 105.94617,0 199.07205,40.33953 252.59375,101.25 L 664.3125,253.75 C 592.20544,182.82091 488.03965,138.25 372.15625,138.25 Z"
         transform="translate(-16.162441,-216.17265)"
         id="path3824" />
    </g>
  </g>
</svg>
