<?xml version="1.0" encoding="UTF-8" standalone="no"?>
<svg
   xmlns:dc="http://purl.org/dc/elements/1.1/"
   xmlns:cc="http://creativecommons.org/ns#"
   xmlns:rdf="http://www.w3.org/1999/02/22-rdf-syntax-ns#"
   xmlns:svg="http://www.w3.org/2000/svg"
   xmlns="http://www.w3.org/2000/svg"
   xmlns:sodipodi="http://sodipodi.sourceforge.net/DTD/sodipodi-0.dtd"
   xmlns:inkscape="http://www.inkscape.org/namespaces/inkscape"
   width="40"
   height="40"
   viewBox="0 0 40 40"
   version="1.1"
   id="svg2"
   inkscape:version="0.91 r13725"
   sodipodi:docname="prop-blue.svg">
  <metadata
     id="metadata72">
    <rdf:RDF>
      <cc:Work
         rdf:about="">
        <dc:format>image/svg+xml</dc:format>
        <dc:type
           rdf:resource="http://purl.org/dc/dcmitype/StillImage" />
        <dc:title>Slice 1</dc:title>
      </cc:Work>
    </rdf:RDF>
  </metadata>
  <sodipodi:namedview
     pagecolor="#624949"
     bordercolor="#666666"
     borderopacity="1"
     objecttolerance="10"
     gridtolerance="10"
     guidetolerance="10"
     inkscape:pageopacity="0"
     inkscape:pageshadow="2"
     inkscape:window-width="1254"
     inkscape:window-height="797"
     id="namedview70"
     showgrid="false"
     fit-margin-top="0"
     fit-margin-left="0"
     fit-margin-right="0"
     fit-margin-bottom="0"
     inkscape:zoom="10.365218"
     inkscape:cx="-6.701086"
     inkscape:cy="15.318601"
     inkscape:window-x="75"
     inkscape:window-y="34"
     inkscape:window-maximized="0"
     inkscape:current-layer="Page-1" />
  <!-- Generator: Sketch 40.1 (33804) - http://www.bohemiancoding.com/sketch -->
  <title
     id="title4">Slice 1</title>
  <desc
     id="desc6">Created with Sketch.</desc>
  <defs
     id="defs8" />
  <g
     id="Page-1"
     style="fill:none;fill-rule:evenodd;stroke:none;stroke-width:1"
     transform="translate(-99,-133)">
    <ellipse
       style="opacity:1;fill:#1c4472;fill-opacity:1;fill-rule:evenodd;stroke:none;stroke-width:12.66800022;stroke-linecap:round;stroke-miterlimit:4;stroke-dasharray:none;stroke-opacity:1"
       id="path4136"
       cx="118.98337"
       cy="152.67068"
       rx="18.828497"
       ry="18.964935" />
    <path
       d="M 118.95546,173 C 130.00223,173 139,164.00223 139,152.95546 139,141.90869 130.00223,133 118.95546,133 107.90869,133 99,141.90869 99,152.95546 99,164.00223 107.90869,173 118.95546,173 l 0,0 z m 16.83741,-15.85746 c -0.0891,-1.87083 -2.40534,-2.67261 -2.58352,-2.67261 -0.26726,-0.0891 -2.04899,-0.89086 -4.36525,-1.15813 -2.93987,-0.35634 -5.87973,-0.80178 -6.23608,-0.89087 -0.7127,0 -1.3363,-0.17817 -1.69265,-0.80178 -0.0891,-0.0891 -0.44544,-1.15813 0.71269,-1.95991 0.17818,-0.17817 0.97996,-0.97995 1.95991,-2.049 1.42539,-1.60356 3.11804,-4.0089 2.31626,-6.41425 0,0 -0.17817,-0.97995 -0.97995,-2.13808 -0.62361,-0.80179 -2.85078,-4.00891 -7.03787,-4.36526 -1.06904,-0.0891 -4.45434,0.26726 -4.7216,3.3853 0,0 -0.71269,2.49443 1.87083,7.92873 0.44543,0.97996 2.13808,4.54343 2.04899,4.81069 0,0.17818 -0.26726,0.26726 -0.44543,0.44544 -0.26726,0.26726 -0.53452,0.6236 -1.3363,0.53452 -0.7127,-0.17818 -4.098,-1.24722 -6.32517,-1.15813 -1.15813,0.0891 -5.61247,0 -6.14699,7.48329 0,0 -0.53453,6.23608 4.81068,7.92873 0.35635,0.17818 2.58352,0.0891 5.79065,-3.91982 0.0891,-0.0891 1.24722,-1.60356 2.22717,-3.11804 0.97996,-1.3363 1.95991,-2.76169 2.049,-2.85078 0.17817,-0.17817 0.35635,-0.6236 0.7127,-0.71269 0.35634,-0.0891 0.97995,-0.17818 1.24721,0.97995 0,0 0.35635,0.80179 0.7127,2.049 0.6236,1.95991 1.60356,4.89978 3.56347,5.70156 0.62361,0.26726 4.63252,1.87082 9.62138,-2.22717 0.17817,-0.0891 2.40535,-1.95991 2.22717,-4.81069 l 0,0 z m -16.74833,-3.11804 c 0.53453,0 0.97996,-0.44543 0.97996,-1.06904 0,-0.53453 -0.44543,-0.97996 -0.97996,-0.97996 -0.6236,0 -1.06904,0.44543 -1.06904,0.97996 0,0.62361 0.44544,1.06904 1.06904,1.06904 l 0,0 z"
       id="Shape"
       inkscape:connector-curvature="0"
       style="fill:#000000;fill-opacity:1" />
  </g>
</svg>
