<?xml version="1.0" encoding="UTF-8" standalone="no"?>
<!-- Created with Inkscape (http://www.inkscape.org/) -->

<svg
   xmlns:dc="http://purl.org/dc/elements/1.1/"
   xmlns:cc="http://creativecommons.org/ns#"
   xmlns:rdf="http://www.w3.org/1999/02/22-rdf-syntax-ns#"
   xmlns:svg="http://www.w3.org/2000/svg"
   xmlns="http://www.w3.org/2000/svg"
   xmlns:sodipodi="http://sodipodi.sourceforge.net/DTD/sodipodi-0.dtd"
   xmlns:inkscape="http://www.inkscape.org/namespaces/inkscape"
   width="13.250263mm"
   height="16.707531mm"
   viewBox="0 0 46.949752 59.199913"
   id="svg6265"
   version="1.1"
   inkscape:version="0.91 r13725"
   sodipodi:docname="anchor.svg">
  <defs
     id="defs6267" />
  <sodipodi:namedview
     id="base"
     pagecolor="#ffffff"
     bordercolor="#666666"
     borderopacity="1.0"
     inkscape:pageopacity="0.0"
     inkscape:pageshadow="2"
     inkscape:zoom="0.35"
     inkscape:cx="-354.38222"
     inkscape:cy="-153.25719"
     inkscape:document-units="px"
     inkscape:current-layer="layer1"
     showgrid="false"
     fit-margin-top="0"
     fit-margin-left="0"
     fit-margin-right="0"
     fit-margin-bottom="0"
     inkscape:window-width="1535"
     inkscape:window-height="876"
     inkscape:window-x="65"
     inkscape:window-y="24"
     inkscape:window-maximized="1" />
  <metadata
     id="metadata6270">
    <rdf:RDF>
      <cc:Work
         rdf:about="">
        <dc:format>image/svg+xml</dc:format>
        <dc:type
           rdf:resource="http://purl.org/dc/dcmitype/StillImage" />
        <dc:title></dc:title>
      </cc:Work>
    </rdf:RDF>
  </metadata>
  <g
     inkscape:label="Layer 1"
     inkscape:groupmode="layer"
     id="layer1"
     transform="translate(-376.52508,-319.90511)">
    <g
       id="g6250"
       transform="translate(-498.56476,-15.046061)">
      <path
         id="path6240"
         d="m 898.57227,334.95117 a 8.125,8.125 0 0 0 -8.125,8.125 8.125,8.125 0 0 0 8.125,8.125 8.125,8.125 0 0 0 8.125,-8.125 8.125,8.125 0 0 0 -8.125,-8.125 z m 0,3.92969 a 4.1964288,4.1964288 0 0 1 4.19531,4.19531 4.1964288,4.1964288 0 0 1 -4.19531,4.19727 4.1964288,4.1964288 0 0 1 -4.19727,-4.19727 4.1964288,4.1964288 0 0 1 4.19727,-4.19531 z"
         style="opacity:1;fill:#000000;fill-opacity:1;fill-rule:evenodd;stroke:none;stroke-width:1.66799998;stroke-linecap:round;stroke-miterlimit:4;stroke-dasharray:none;stroke-opacity:1"
         inkscape:connector-curvature="0" />
      <path
         sodipodi:nodetypes="scccccsccccccccccscccccscs"
         inkscape:connector-curvature="0"
         id="path6245"
         d="m 904.70756,390.11447 c 7.93433,-3.48639 10.08811,-5.53218 12.50976,-9.79882 l 4.82227,1.69531 -3.39258,-10.80273 -10.08984,5.625 4.91015,2.5 c -3.31282,6.35642 -10.07571,7.24853 -11.16015,1.875 -1.08444,-5.37354 -1.79102,-21.55079 -1.79102,-21.55079 l 7.59571,0.0332 0,-4.01953 -7.41211,0 -0.26758,-4.64258 c -1.24699,-0.13003 -2.48737,-0.0627 -3.7349,-0.005 l -0.26954,4.64258 -7.41015,0 0,4.01757 7.5957,-0.0312 c 0,0 -0.70657,16.1753 -1.79101,21.54883 -1.08444,5.37353 -7.84928,4.48142 -11.16211,-1.875 l 4.91211,-2.5 -10.08985,-5.625 -3.39258,10.80469 4.82032,-1.69727 c 2.42166,4.26664 4.57739,6.31439 12.51172,9.80079 2.02886,0.89148 3.90324,2.86443 6.14284,4.04156 2.2396,-1.17213 4.11398,-3.14508 6.14284,-4.03657 z"
         style="fill:#000000;fill-opacity:1;fill-rule:evenodd;stroke:none;stroke-width:1px;stroke-linecap:butt;stroke-linejoin:miter;stroke-opacity:1" />
    </g>
  </g>
</svg>
