<svg xmlns="http://www.w3.org/2000/svg" width="41" height="41" viewBox="0 0 41.000004 41"><title>Slice 1</title><g fill="none" fill-rule="evenodd"><path d="M20.455 40.5c11.047 0 20.045-8.998 20.045-20.045C40.5 9.41 31.502.5 20.455.5 9.498.5.5 9.409.5 20.455.5 31.502 9.498 40.5 20.455 40.5z" stroke="#000"/><path d="M16.147 5.946c-.8 0-1.445.645-1.445 1.446v2.951c0 .053.01.104.016.156H7.792c-1.069 0-1.93.86-1.93 1.928v16.945c0 1.07.861 1.93 1.93 1.93h25.342c1.068 0 1.93-.86 1.93-1.93V12.427a1.925 1.925 0 0 0-1.93-1.928h-6.97c.007-.052.017-.103.017-.156V7.392c0-.8-.645-1.446-1.446-1.446h-8.588zm.121 1.188h8.377c.219 0 .395.176.395.395v2.97h-9.166V7.53c0-.219.176-.395.394-.395z" stroke="#000" stroke-width=".784" stroke-linecap="round"/><path d="M27.55 21.658c-.11 0-.22 0-.22.11v.33s.11 0 .11.11c.22 0 .33-.11.33-.11.11-.22.11-.33 0-.44h-.22zm-2.754-1.542s0-.11-.11-.22h-1.763v.88c.22.111 1.653.111 1.763 0 .22-.11.11-.44.11-.66zm2.533-.44c-.11.11-.33.11-.33.22-.22.33 0 .991.44.88.662-.11.662-1.1-.11-1.1zm-13.328.77c-.22-.11-1.322 0-1.653 0v.661c.551 0 1.212.11 1.653 0 0-.11.11-.55 0-.66zM7.83 21.99h2.424v-1.983H7.832v1.983zm25.116-.551c-.22.33-.44.66-.66 1.101h-.441c-.661-1.101-1.212-2.093-1.763-3.084h.771c.441.66.882 1.432 1.212 2.203.44-.771.881-1.542 1.212-2.203h.66c-.22.66-.66 1.322-.99 1.983zm-2.974-.33v.99c-.22.662-1.762.441-2.533.441h-.882a.86.86 0 0 1-.44-.44c0-.33 0-2.203.11-2.424.33-.33 1.432-.22 2.093-.22-.11.66.991.881.991 0 .881 0 .661.881.661 1.652zm-4.186 1.431h-.991l-1.212-1.211h-.66v1.211h-.772v-3.084h2.093c.33 0 .771-.11.992.11.33.11.44 1.432.11 1.763-.22.11-.661 0-.882.11.441.33.882.66 1.322 1.101zm-4.406 0h-.44c-.11-.11-.331-.22-.441-.33-.551-.44-1.102-.881-1.653-1.432 0 .66 0 1.212-.11 1.762h-.55v-2.533h.44c.11.11.33.22.44.33.552.44 1.102.992 1.763 1.322 0-.33-.11-1.432 0-1.652h.551v2.533zm-3.525 0h-2.754v-2.533h2.644v.44h-2.093v.551h1.212v.44h-1.212v.552h2.203v.55zm-3.305-1.101c-.33.22-1.652.11-2.203.11v.991h-.55v-2.533h2.533c.11 0 .22.11.33.22v.661c0 .22 0 .44-.11.55zm-3.745.881c-.22.22-.881.22-1.432.22-.55 0-1.873.11-2.093-.33-.22-.22-.11-1.432-.11-1.873 0-.22 0-.55.11-.66.11-.11.22-.221.44-.221.662 0 2.865-.22 3.085.22.22.22.11 1.102.11 1.542 0 .331.11.882-.11 1.102zm17.625-1.652c-.11 0-.33.11-.33.11-.22.33 0 .881.44.77.44-.11.44-.88-.11-.88z" fill="#000"/></g></svg>