<svg xmlns="http://www.w3.org/2000/svg" width="41" height="41" viewBox="0 0 41 41"><title>Slice 1</title><g fill="none" fill-rule="evenodd"><path d="M14.047 20.102a3.672 3.672 0 0 0-3.113 1.503l-.342.467 2.719 1.463c.856.462 1.151 1.447.794 1.934-.356.486-1.383.499-2.084-.178l-2.218-2.143-.334.456a3.674 3.674 0 0 0 .79 5.146l9.468 6.941a3.674 3.674 0 0 0 5.146-.79l1.465-1.999a3.674 3.674 0 0 0-.791-5.146l-9.467-6.942a3.672 3.672 0 0 0-2.033-.712zm11.432 10.306a1.254 2.846 36.255 0 1 .332.113 1.254 2.846 36.255 0 1-.672 3.038 1.254 2.846 36.255 0 1-2.696 1.552 1.254 2.846 36.255 0 1 .672-3.035 1.254 2.846 36.255 0 1 2.364-1.668zM10.595 22.06l-2.478-1.335c-.71-.382-.815-.253-.815-.253s-.102.162.448.694l2.05 1.979.795-1.086z" fill="#1c4472"/><path d="M8.933 21.577S6.037 20.709 7.3 16.13c1.278-4.633 1.655-6.442-4.255-4.804" stroke="#1c4472" stroke-width=".7" stroke-linecap="round"/><g transform="matrix(.02894 .00983 -.00983 .02894 14.16 4.518)" fill="#1c4472"><circle r="70" cy="396.648" cx="344.286" transform="translate(107.018 136.766) scale(.69695)"/><path d="M357.125 75.219c-88.706 0-167.248 33.723-215.5 85.562l40 61.656c35.116-46.92 100.546-78.468 175.5-78.468 69.397 0 130.64 27.062 167.219 68.312l41.468-58.531c-48.658-47.848-124.05-78.531-208.687-78.531zM350 229.5c-50.457 0-96.517 18.781-131.563 49.688l33.782 52.093c26.406-22.235 60.515-35.656 97.781-35.656 34.984 0 67.177 11.815 92.844 31.656l35.844-50.625C444.01 247.236 399.089 229.5 350 229.5z"/><path d="M355.994-77.923c-116.584 0-221.308 45.128-293.438 116.813l37.907 58.406C153.763 35.592 247.476-5.39 354.243-5.39c105.947 0 199.073 40.34 252.595 101.25l41.312-58.282c-72.107-70.929-176.273-115.5-292.156-115.5z"/></g><path d="M20.455 40.5c11.047 0 20.045-8.998 20.045-20.045C40.5 9.41 31.502.5 20.455.5 9.498.5.5 9.409.5 20.455.5 31.502 9.498 40.5 20.455 40.5z" stroke="#1c4472"/></g></svg>