<svg xmlns="http://www.w3.org/2000/svg" width="41" height="41" viewBox="0 0 41 41"><title>Slice 1</title><g fill="none" fill-rule="evenodd"><g transform="translate(-93.29 -334.599)" fill="#000"><path d="M100.833 346.253a3.368 3.368 0 0 0-3.377 3.375v9.36a3.37 3.37 0 0 0 3.377 3.377h25.469a3.37 3.37 0 0 0 3.377-3.377v-9.36a3.368 3.368 0 0 0-3.377-3.375h-25.469zm1.182.746h23.105a3.059 3.059 0 0 1 3.065 3.065v8.49a3.057 3.057 0 0 1-3.065 3.063h-23.105a3.055 3.055 0 0 1-3.063-3.063v-8.49a3.057 3.057 0 0 1 3.063-3.065z"/><path d="M102.474 348.226a2.543 2.543 0 0 0-2.549 2.549v7.066a2.543 2.543 0 0 0 2.549 2.549h20.644a2.543 2.543 0 0 0 2.55-2.549v-7.066a2.543 2.543 0 0 0-2.55-2.55h-20.644z"/><ellipse ry=".772" rx=".82" cy="354.067" cx="126.956"/></g><path d="M20.455 40.5c11.047 0 20.045-8.998 20.045-20.045C40.5 9.41 31.502.5 20.455.5 9.498.5.5 9.409.5 20.455.5 31.502 9.498 40.5 20.455 40.5z" stroke="#000"/></g></svg>