<svg xmlns="http://www.w3.org/2000/svg" width="41" height="41" viewBox="0 0 41 41"><title>Slice 1</title><g fill="none" fill-rule="evenodd"><path d="M20.455 40.5c-13.303 0-6.651 0 0 0zm16.838-15.857c-.09-1.871-2.405-2.673-2.584-2.673-.267-.09-2.049-.89-4.365-1.158-2.94-.357-5.88-.802-6.236-.891-.713 0-1.336-.178-1.693-.802-.089-.089-.445-1.158.713-1.96.178-.178.98-.98 1.96-2.049 1.425-1.603 3.118-4.009 2.316-6.414 0 0-.178-.98-.98-2.138-.623-.802-2.85-4.009-7.038-4.365-1.069-.09-4.454.267-4.721 3.385 0 0-.713 2.494 1.87 7.929.446.98 2.139 4.543 2.05 4.81 0 .179-.268.268-.446.446-.267.267-.534.623-1.336.534-.713-.178-4.098-1.247-6.325-1.158-1.158.09-5.613 0-6.147 7.483 0 0-.535 6.237 4.81 7.93.357.177 2.584.088 5.791-3.92.09-.09 1.247-1.604 2.227-3.119.98-1.336 1.96-2.761 2.05-2.85.177-.179.356-.624.712-.713.356-.09.98-.178 1.247.98 0 0 .357.802.713 2.049.623 1.96 1.603 4.9 3.563 5.701.624.268 4.633 1.871 9.622-2.227.178-.089 2.405-1.96 2.227-4.81zm-16.748-3.119c.534 0 .98-.445.98-1.069a.989.989 0 0 0-.98-.98c-.624 0-1.07.446-1.07.98 0 .624.446 1.07 1.07 1.07z" fill="#000"/><path d="M20.455 40.5c11.047 0 20.045-8.998 20.045-20.045C40.5 9.41 31.502.5 20.455.5 9.498.5.5 9.409.5 20.455.5 31.502 9.498 40.5 20.455 40.5z" stroke="#000"/></g></svg>